# xmcd
#
# Track frame offsets: 
#        150
#        19350
#        38496
#        59351
#        80710
#        98561
#        119795
#        142409
#        161201
#        185380
#        207681
#        226059
#        245049
#        267509
#        288628
#
# Disc length: 4111 seconds
#
# Revision: 1
# Processed by: cddbd v1.5.2PL0 Copyright (c) Steve Scherf et al.
# Submitted via: ExactAudioCopyFreeDBPlugin 1.0
#
DISCID=ed100d0f
DTITLE=群星 - TEST-CD试音极品23CDA
DYEAR=2013
DGENRE=stereo
TTITLE0=汴水流
TTITLE1=为了遇见你
TTITLE2=你懂得
TTITLE3=桃花运
TTITLE4=傻傻的爱傻傻等待
TTITLE5=你的心里有过谁
TTITLE6=梦中的情话
TTITLE7=三生石
TTITLE8=默默祝福你
TTITLE9=有没有人告诉你
TTITLE10=其实我介意
TTITLE11=我是否也在你心中
TTITLE12=相爱的泪水
TTITLE13=今夜情为证
TTITLE14=在心里从此永远有个你
EXTD=
EXTT0=
EXTT1=
EXTT2=
EXTT3=
EXTT4=
EXTT5=
EXTT6=
EXTT7=
EXTT8=
EXTT9=
EXTT10=
EXTT11=
EXTT12=
EXTT13=
EXTT14=
PLAYORDER=
